# xmcd CD database file
#
# Track frame offsets:
#	150
#	12970
#	31185
#	50638
#	64490
#	79148
#	94776
#	113052
#	128304
#	143855
#	156053
#	184227
#
# Disc length: 2695 seconds
#
# Revision: 1
# Processed by: cddbd v1.5.2PL0 Copyright (c) Steve Scherf et al.
# Submitted via: CDex 1.70beta2
#
DISCID=990a850c
DTITLE=Elizabeth Shepherd - Heavy Falls the Night - PCD-93316
DYEAR=2010
DGENRE=Classical
TTITLE0=What Else
TTITLE1=The Taking
TTITLE2=Heavy Falls the Night
TTITLE3=Numbers
TTITLE4=Seven Bucks
TTITLE5=One More Day
TTITLE6=A Song for Dinah Washington
TTITLE7=High
TTITLE8=It's Coming
TTITLE9=On the Insufficiency of Words
TTITLE10=Danny's Song
TTITLE11=Numbers [Trio Version]
EXTD=YEAR: 2010
EXTT0=
EXTT1=
EXTT2=
EXTT3=
EXTT4=
EXTT5=
EXTT6=
EXTT7=
EXTT8=
EXTT9=
EXTT10=
EXTT11=
PLAYORDER=
